<svg width="128" height="128" fill="none" xmlns="http://www.w3.org/2000/svg"><rect y="63.64" width="90" height="90" rx="25" transform="rotate(-45 0 63.64)" fill="#3A87FE"/><path d="M73.023 83.824c6.031 0 10.938 4.907 10.938 10.938a1.367 1.367 0 002.734 0c0-6.031 4.907-10.938 10.938-10.938a1.367 1.367 0 000-2.734c-6.031 0-10.938-4.907-10.938-10.938a1.367 1.367 0 00-2.734 0c0 6.031-4.907 10.938-10.938 10.938a1.367 1.367 0 000 2.734zm12.305-7.715a13.764 13.764 0 006.348 6.348 13.763 13.763 0 00-6.348 6.348 13.763 13.763 0 00-6.348-6.348 13.762 13.762 0 006.348-6.348zm-54.961-33.3a6.844 6.844 0 016.836 6.836 1.367 1.367 0 002.734 0 6.844 6.844 0 016.836-6.836 1.367 1.367 0 000-2.735 6.844 6.844 0 01-6.836-6.836 1.367 1.367 0 00-2.734 0 6.844 6.844 0 01-6.836 6.836 1.367 1.367 0 000 2.735zm8.203-4.646a9.649 9.649 0 003.278 3.278 9.645 9.645 0 00-3.278 3.278 9.647 9.647 0 00-3.278-3.278 9.648 9.648 0 003.278-3.278zm28.574 32.4a1.367 1.367 0 100-2.735 1.367 1.367 0 000 2.734z" fill="#fff"/><path d="M70.792 66.077c.385.65 1.224.864 1.873.478a23.214 23.214 0 0111.843-3.239 1.367 1.367 0 000-2.734c-12.816 0-23.242-10.426-23.242-23.242a1.367 1.367 0 00-2.735 0c0 12.816-10.426 23.242-23.242 23.242a1.367 1.367 0 000 2.734c12.816 0 23.242 10.427 23.242 23.243a1.367 1.367 0 002.735 0c0-4.177 1.12-8.272 3.238-11.843a1.367 1.367 0 00-2.35-1.395 25.79 25.79 0 00-2.257 4.912A26.101 26.101 0 0043.612 61.95a26.102 26.102 0 0016.286-16.286 26.101 26.101 0 0016.284 16.285 25.802 25.802 0 00-4.912 2.256 1.367 1.367 0 00-.478 1.873z" fill="#fff"/></svg>