<svg width="128" height="128" fill="none" xmlns="http://www.w3.org/2000/svg"><rect y="63.64" width="90" height="90" rx="25" transform="rotate(-45 0 63.64)" fill="#FF9B00"/><g clip-path="url(#clip0_2214_3)" fill="#fff"><path d="M69.454 86.184c-.445.111-.899.21-1.35.293a2.173 2.173 0 00-.854 3.91 2.17 2.17 0 001.645.36 27.03 27.03 0 001.609-.35 2.17 2.17 0 10-1.05-4.213zm16.054-29.097a2.169 2.169 0 002.743 1.378 2.171 2.171 0 001.379-2.743 26.902 26.902 0 00-.565-1.545 2.17 2.17 0 10-4.031 1.611c.17.426.33.863.474 1.3zm-9 25.998c-.383.253-.778.497-1.176.727a2.171 2.171 0 002.17 3.76 27.09 27.09 0 001.4-.865 2.171 2.171 0 00-2.394-3.622zM90.98 63.15a2.171 2.171 0 00-4.339.17c.018.459.023.923.012 1.38a2.168 2.168 0 002.123 2.22 2.17 2.17 0 002.218-2.123c.012-.547.007-1.1-.014-1.647zm-5.826 14.224a2.17 2.17 0 00-3.04.434c-.276.367-.566.73-.863 1.08a2.172 2.172 0 003.306 2.814c.355-.417.7-.85 1.03-1.289a2.17 2.17 0 00-.433-3.039zm3.191-7.847a2.17 2.17 0 00-2.721 1.422c-.137.437-.29.876-.453 1.306a2.172 2.172 0 004.056 1.546c.195-.511.376-1.034.54-1.553a2.171 2.171 0 00-1.422-2.721zM59.983 86.496a22.411 22.411 0 01-5.568-1.77l-.061-.032a23.72 23.72 0 01-1.24-.629 23.167 23.167 0 01-2.16-1.35c-10.212-7.193-12.667-21.353-5.473-31.565a22.559 22.559 0 015.568-5.539l.077-.054c7.437-5.125 17.535-5.47 25.432-.204l-1.696 2.45c-.471.682-.181 1.18.644 1.105l7.367-.66c.827-.074 1.321-.789 1.099-1.587l-1.979-7.128c-.221-.799-.788-.895-1.26-.213l-1.7 2.457c-5.795-3.89-12.746-5.374-19.645-4.178-.695.12-1.38.268-2.055.44-.006 0-.01 0-.014.002-.026.006-.053.015-.078.022a26.767 26.767 0 00-14.843 9.948c-.032.037-.064.073-.093.113a25.59 25.59 0 00-.938 1.354c-.024.034-.041.07-.061.104a26.763 26.763 0 00-4.278 15.786v.055c.024.545.068 1.097.126 1.64.003.035.011.069.017.104.06.546.137 1.094.232 1.642.968 5.588 3.604 10.616 7.554 14.528l.028.029.01.009a27.354 27.354 0 003.459 2.89 26.767 26.767 0 0010.763 4.505 2.17 2.17 0 10.767-4.274z"/><path d="M62.668 46.657c-.971 0-1.757.788-1.757 1.757v17.498l16.004 8.274a1.756 1.756 0 001.613-3.12l-14.105-7.292v-15.36c0-.97-.786-1.757-1.755-1.757z"/></g><defs><clipPath id="clip0_2214_3"><path fill="#fff" transform="translate(37 37)" d="M0 0h54v54H0z"/></clipPath></defs></svg>