<svg width="128" height="128" fill="none" xmlns="http://www.w3.org/2000/svg"><rect y="63.64" width="90" height="90" rx="25" transform="rotate(-45 0 63.64)" fill="#76BB40"/><g clip-path="url(#clip0_2214_4)" fill="#fff"><path d="M47.973 81.36a1.34 1.34 0 01-.944-.39C42.5 76.438 40 70.41 40 64c0-6.41 2.499-12.437 7.032-16.968a1.334 1.334 0 011.885 1.885A21.19 21.19 0 0042.667 64a21.19 21.19 0 006.25 15.083 1.334 1.334 0 01-.944 2.277z"/><path d="M42.32 87.013a1.34 1.34 0 01-.944-.39C35.331 80.577 32 72.542 32 64s3.33-16.576 9.379-22.621a1.334 1.334 0 011.885 1.885C37.72 48.805 34.667 56.171 34.667 64c0 7.83 3.053 15.195 8.597 20.736a1.334 1.334 0 01-.944 2.277zm43.36 0a1.334 1.334 0 01-.944-2.275C90.28 79.196 93.333 71.83 93.333 64s-3.053-15.195-8.597-20.736a1.334 1.334 0 011.885-1.885c6.049 6.045 9.38 14.08 9.38 22.621 0 8.541-3.332 16.576-9.38 22.621a1.32 1.32 0 01-.94.392z"/><path d="M80.027 81.36a1.334 1.334 0 01-.944-2.275c4.03-4.032 6.25-9.386 6.25-15.085a21.19 21.19 0 00-6.25-15.083 1.334 1.334 0 011.885-1.885A23.834 23.834 0 0188 64c0 6.41-2.499 12.437-7.032 16.968a1.32 1.32 0 01-.941.392zm-22.499 3.973a1.34 1.34 0 01-.594-.138 1.337 1.337 0 01-.691-1.55l4.674-16.978H52c-.504 0-.965-.286-1.192-.736a1.338 1.338 0 01.126-1.395l15.954-21.333a1.333 1.333 0 012.384 1.013l-2.368 14.45H76c.507 0 .97.289 1.198.745.224.456.168 1-.142 1.402l-18.472 24c-.259.336-.653.52-1.056.52zM54.664 64h8.003c.416 0 .808.195 1.061.525.25.334.333.763.224 1.163L60.62 77.8l12.67-16.467h-7.957a1.33 1.33 0 01-1.017-.469 1.344 1.344 0 01-.3-1.08l1.74-10.619L54.664 64z"/></g><defs><clipPath id="clip0_2214_4"><path fill="#fff" transform="translate(32 32)" d="M0 0h64v64H0z"/></clipPath></defs></svg>