<svg width="92" height="92" fill="none" xmlns="http://www.w3.org/2000/svg"><g clip-path="url(#clip0_10_1040)" fill="#FF9B00"><path d="M87.651 31.151l-24.173 14.41a4.227 4.227 0 00-1.78 5.13 4.52 4.52 0 01-3.388.047l-3.127-1.229a6.334 6.334 0 00-3.895-.246l-4.79 1.212a6.353 6.353 0 00-.547.165c-2.927-1.671-4.67-2.171-7.76-.977l-2.772 1.072a4.53 4.53 0 01-3.967-.33l-.927-.547a4.227 4.227 0 00-2.003-4.298L4.349 31.151C2.432 30.01 0 31.388 0 33.621v26.985a5.34 5.34 0 002.595 4.567l10.554 6.291a4.216 4.216 0 005.71-1.344l.45.266-1.368 1.907a4.74 4.74 0 001.087 6.617 4.712 4.712 0 003.591.818 4.712 4.712 0 001.923 3.141 4.728 4.728 0 003.594.815 4.74 4.74 0 006.645 3.613 4.71 4.71 0 001.693 2.233 4.748 4.748 0 006.454-.872l3.545 2.1a4.746 4.746 0 007.142-3.662l.138.082a4.71 4.71 0 003.593.514 4.712 4.712 0 002.905-2.177c.4-.674.622-1.419.659-2.179.79.22 1.628.23 2.444.022a4.712 4.712 0 002.904-2.177 4.72 4.72 0 00.65-2.045 4.75 4.75 0 005.927-1.952 4.751 4.751 0 00-.525-5.556l1.39-.812a4.218 4.218 0 005.151.648l2.552-1.52a1.347 1.347 0 10-1.38-2.316l-2.552 1.521a1.523 1.523 0 01-1.806-.182c-.009-.076-11.337-19.008-11.337-19.008a1.525 1.525 0 01.53-2.084l24.173-14.409a.18.18 0 01.274.156v26.984c0 .918-.49 1.781-1.28 2.252l-2.547 1.518a1.348 1.348 0 101.38 2.316l2.547-1.519A5.342 5.342 0 0092 60.606V33.622c0-2.231-2.43-3.615-4.349-2.47zM51.95 51.876a3.66 3.66 0 012.247.142l3.134 1.231a7.202 7.202 0 005.695-.198l9.19 15.51-1.49.87a7.39 7.39 0 00-.776.532L50.297 58.325a1.347 1.347 0 00-2.034 1.16v.27c0 .96-.374 1.86-1.052 2.538a3.564 3.564 0 01-2.536 1.05.3.3 0 01-.292-.293v-6.396c0-1.393.78-2.637 1.973-3.26a1.38 1.38 0 00.173-.084c.2-.092.41-.166.63-.222l4.79-1.212zm-36.266 17.44c-.394.1-.805.042-1.155-.167L3.975 62.858a2.634 2.634 0 01-1.28-2.252V33.622c0-.029 0-.105.092-.157a.183.183 0 01.09-.027c.045 0 .076.02.092.028l24.173 14.41c.72.428.957 1.363.53 2.083L16.62 68.618c-.208.35-.54.599-.935.699zm6.44 7.762a2.033 2.033 0 01-1.525-.357 2.033 2.033 0 01-.826-1.331 2.033 2.033 0 01.357-1.525l1.923-2.679c.047-.065.097-.127.15-.185.04-.035.078-.074.114-.115a2.05 2.05 0 012.592-.169 2.05 2.05 0 01.47 2.857l-.004.004-1.92 2.674a2.033 2.033 0 01-1.33.826zm3.99 3.602a2.033 2.033 0 01-.826-1.331 2.033 2.033 0 01.357-1.525l1.923-2.679 2.122-2.955a2.033 2.033 0 011.666-.854 2.049 2.049 0 011.658 3.241l-4.044 5.634a2.05 2.05 0 01-2.856.469zm7.04 4.316a2.049 2.049 0 01-1.994-3.213c0-.002.002-.004.003-.005l4.042-5.63a2.05 2.05 0 013.682.862 2.034 2.034 0 01-.357 1.526l-4.045 5.633a2.034 2.034 0 01-1.331.827zm4.892 2.345a2.033 2.033 0 01-.826-1.331 2.032 2.032 0 01.357-1.525l.004-.006 1.342-1.87a2.05 2.05 0 012.855-.467 2.05 2.05 0 01.469 2.856l-.77 1.072a.99.99 0 00-.023.033l-.552.769a2.049 2.049 0 01-2.856.469zm32.47-11.53a2.05 2.05 0 01-2.805.717l-3.116-1.845-.004-.002-9.65-5.717a1.348 1.348 0 00-1.373 2.319l9.653 5.719h.002a2.05 2.05 0 01.717 2.805c-.28.47-.725.805-1.255.94a2.034 2.034 0 01-1.551-.222l-2.54-1.504-.006-.004-.004-.002-7.108-4.212a1.348 1.348 0 10-1.374 2.319l7.109 4.212.004.002c.47.279.804.724.94 1.254.135.53.056 1.08-.223 1.551a2.025 2.025 0 01-1.254.94 2.034 2.034 0 01-1.55-.222l-3.812-2.257-.008-.005-2.787-1.651a1.348 1.348 0 00-1.373 2.319l2.787 1.651.004.002a2.05 2.05 0 01.714 2.804 2.05 2.05 0 01-2.805.718l-3.336-1.977a4.748 4.748 0 00-1.162-6.51 4.714 4.714 0 00-2.081-.84c.322-.797.42-1.67.278-2.539a4.711 4.711 0 00-1.914-3.084 4.729 4.729 0 00-3.593-.814 4.728 4.728 0 00-1.922-3.145 4.712 4.712 0 00-3.534-.827 4.706 4.706 0 00-2.69 1.434 4.716 4.716 0 00-1.412-1.61 4.75 4.75 0 00-5.292-.161l-.955-.565 9.169-15.477.677.4a7.223 7.223 0 006.31.524l2.773-1.072c1.658-.64 2.548-.67 4.222.144a6.364 6.364 0 00-1.698 4.333v6.396a2.99 2.99 0 002.984 2.989h.004a6.242 6.242 0 004.44-1.84 6.255 6.255 0 001.546-2.525l18.77 11.116c.063.036.127.067.192.093.054.045.112.086.174.123a2.05 2.05 0 01.718 2.805z"/><path d="M30.552 35.695h30.896a5.079 5.079 0 005.073-5.073V12.239a5.079 5.079 0 00-5.073-5.073H54.01V5.031A4.456 4.456 0 0049.56.58h-7.12a4.456 4.456 0 00-4.451 4.451v2.135H30.55a5.079 5.079 0 00-5.073 5.073v10.127a1.348 1.348 0 102.695 0V19.86a8.066 8.066 0 005.403 2.071h1.055v1.483a1.348 1.348 0 102.695 0v-1.483h17.346v1.483a1.347 1.347 0 102.696 0v-1.483h1.054a8.066 8.066 0 005.403-2.07v10.76a2.38 2.38 0 01-2.378 2.377H30.551a2.38 2.38 0 01-2.377-2.377v-1.956a1.348 1.348 0 10-2.696 0v1.956a5.079 5.079 0 005.073 5.073zM40.684 5.031c0-.968.788-1.756 1.756-1.756h7.12c.968 0 1.755.788 1.755 1.756v2.135h-10.63V5.031zm17.739 14.206h-1.055v-1.482a1.347 1.347 0 10-2.695 0v1.482H37.327v-1.482a1.348 1.348 0 10-2.695 0v1.482h-1.055a5.41 5.41 0 01-5.403-5.403v-1.595a2.38 2.38 0 012.378-2.377h30.896a2.38 2.38 0 012.378 2.377v1.595a5.41 5.41 0 01-5.403 5.403z"/></g><defs><clipPath id="clip0_10_1040"><path fill="#fff" d="M0 0h92v92H0z"/></clipPath></defs></svg>